<svg version="1.1" id="Livello_1" xmlns="http://www.w3.org/2000/svg" x="0" y="0" width="184" height="44" xml:space="preserve"><style>.st0{fill:#d67c1c}</style><path class="st0" d="M1 21.392c0-8.545 9.992-15.47 22.318-15.47 3.889 0 7.545.688 10.728 1.9v10.75c-1.54-1.85-4.55-3.107-8.011-3.107-5.03 0-9.106 2.654-9.106 5.927s4.077 5.926 9.106 5.926c3.46 0 6.47-1.256 8.011-3.107v10.75c-3.183 1.212-6.84 1.902-10.728 1.902C10.992 36.863 1 29.936 1 21.392zM38.576 36.325h14.822V6.916H38.576v29.409zM70.223 6.916H85.044v7.842H72.638v4.167H83.65v6.966H72.638v10.434H57.816V6.916h12.407z"/><path d="M108.179 26.38l-3.667-8.853-3.24 8.852h6.907zm-26.144 9.945L96.862 6.797h15.727l14.827 29.528h-14.598l-2.342-4.263H98.974l-2.342 4.263H82.035z" fill-rule="evenodd" clip-rule="evenodd" fill="#d67c1c"/><path d="M142.345 34.783a15.612 15.612 0 01-9.575 1.844l.44-5.742a9.898 9.898 0 006.35-1.127 9.93 9.93 0 005.09-7.913 13.373 13.373 0 013.464-8.813c.032-.055.052-.078.06-.066a13.317 13.317 0 013.346-2.626c5.803-3.217 12.965-1.646 16.937 3.409a15.621 15.621 0 015.147-4.579A15.614 15.614 0 01183 7.305l-.616 5.715a9.894 9.894 0 00-5.994 1.177 9.928 9.928 0 00-5.073 7.722 13.476 13.476 0 01-.053 1.25 13.318 13.318 0 01-6.818 10.491c-5.815 3.224-12.996 1.639-16.963-3.442a15.624 15.624 0 01-5.138 4.565zm8.081-13.428c-.004.227-.014.454-.028.681a7.583 7.583 0 0015.122.801c.002-.366.016-.732.043-1.096a7.583 7.583 0 00-15.137-.387zm18.72-10.38c-4.818-4.884-12.473-6.183-18.767-2.694-6.113 3.389-9.076 10.258-7.787 16.765a8.752 8.752 0 01-3.483 3.53c-.356.196-.72.366-1.089.51-3.416-9.587.501-20.514 9.695-25.61 8.756-4.854 19.462-2.846 25.92 4.25a16.962 16.962 0 00-4.49 3.25h.001zm-.895 29.55c-8.808 4.881-19.587 2.821-26.033-4.375a16.974 16.974 0 004.535-3.194c4.814 4.94 12.51 6.268 18.834 2.763 6.125-3.395 9.087-10.284 7.78-16.802a8.82 8.82 0 014.52-4.167c3.519 9.627-.39 20.649-9.636 25.774z" fill="#bbb"/></svg>