<?xml version="1.0" encoding="utf-8"?>
<!-- Generator: Adobe Illustrator 25.4.1, SVG Export Plug-In . SVG Version: 6.00 Build 0)  -->
<svg version="1.1" id="Livello_1" xmlns="http://www.w3.org/2000/svg" xmlns:xlink="http://www.w3.org/1999/xlink" x="0px" y="0px"
	 viewBox="0 0 204 59" style="enable-background:new 0 0 204 59;" xml:space="preserve">
<style type="text/css">
	.st0{fill:#A4CE4E;}
	.st1{fill:#3A3C43;}
	.st2{fill:#3A3C43;stroke:#3A3C43;stroke-width:0.3;stroke-miterlimit:10;}
</style>
<path class="st0" d="M179.3,0H0v59h204L179.3,0z"/>
<g>
	<polygon class="st1" points="22,18.4 31.8,18.4 22,28.2 22,31.7 38.3,31.7 38.3,28.1 28.5,28.1 38.3,18.3 38.3,14.8 22,14.8 	"/>
	<polygon class="st1" points="80,31.7 84.3,31.7 84.3,18.8 87.6,31.7 91.5,31.7 94.8,18.8 94.8,31.7 99.1,31.7 99.1,14.8 91.6,14.8 
		89.6,23.3 87.5,14.8 80,14.8 	"/>
	<polygon class="st1" points="102.1,31.7 115.6,31.7 115.6,27.5 107.4,27.5 107.4,14.8 102.1,14.8 	"/>
	<rect x="118.1" y="14.8" class="st1" width="5.3" height="16.9"/>
	<polygon class="st1" points="145.8,31.7 150.7,31.7 150.7,22.4 157.1,31.7 162,31.7 162,14.8 157.1,14.8 157.1,24.1 150.7,14.8 
		145.8,14.8 	"/>
	<g>
		<path class="st2" d="M22.1,44.5v-8.3H24v8.3H22.1z"/>
		<path class="st2" d="M25.1,37.7v-1.5h6.7v1.5h-2.4v6.9h-1.8v-6.9H25.1z"/>
		<path class="st2" d="M31.8,44.5l2-8.3h3.5l2,8.3h-1.8L37.2,43H34l-0.4,1.5H31.8z M35.2,37.6l-0.9,4h2.5l-0.9-4H35.2z"/>
		<path class="st2" d="M45.8,44.5h-5.2v-8.3h1.8v6.9h3.3V44.5z"/>
		<path class="st2" d="M46.9,44.5v-8.3h1.8v8.3H46.9z"/>
		<path class="st2" d="M50,44.5l2-8.3h3.5l2,8.3h-1.8L55.4,43h-3.2l-0.4,1.5H50z M53.5,37.6l-0.9,4h2.5l-0.9-4H53.5z"/>
	</g>
	<path class="st1" d="M57.5,18.1c-0.1-0.7-0.6-1.3-1.3-1.9c-0.7-0.6-1.7-1-2.9-1.3c-1.2-0.3-2.6-0.4-4.1-0.4c-1.6,0-3,0.2-4.2,0.5
		c-1.2,0.3-2.2,0.8-2.9,1.3c-0.7,0.6-1.1,1.2-1.3,1.9c-0.1,0.7-0.2,1.9-0.2,3.6v2.9c0,1.7,0.1,2.9,0.2,3.6c0.1,0.7,0.6,1.3,1.3,1.9
		c0.7,0.6,1.7,1,2.9,1.3c1.2,0.3,2.6,0.4,4.1,0.4c1.6,0,3-0.2,4.2-0.5c1.2-0.3,2.2-0.8,2.9-1.3c0.7-0.6,1.1-1.2,1.3-1.9
		c0.1-0.7,0.2-1.9,0.2-3.6v-2.9C57.7,20,57.6,18.8,57.5,18.1 M52.6,24c0,0.9,0,1.5-0.1,1.9c-0.1,0.4-0.2,0.7-0.5,1
		c-0.3,0.3-0.7,0.5-1.2,0.7c-0.5,0.2-1.1,0.2-1.7,0.2c-0.6,0-1.2-0.1-1.7-0.2c-0.5-0.2-0.9-0.4-1.2-0.7c-0.3-0.3-0.5-0.7-0.5-1
		c-0.1-0.4-0.1-1-0.1-1.9v-1.5c0-0.9,0-1.5,0.1-1.9c0.1-0.4,0.2-0.7,0.5-1c0.3-0.3,0.7-0.5,1.2-0.7c0.5-0.2,1.1-0.2,1.7-0.2
		c0.6,0,1.2,0.1,1.7,0.2c0.5,0.2,0.9,0.4,1.2,0.7c0.3,0.3,0.5,0.7,0.5,1c0.1,0.4,0.1,1,0.1,1.9V24z"/>
	<path class="st1" d="M77.2,18.1c-0.1-0.7-0.6-1.3-1.3-1.9c-0.7-0.6-1.7-1-2.9-1.3c-1.2-0.3-2.6-0.4-4.1-0.4c-1.6,0-3,0.2-4.2,0.5
		c-1.2,0.3-2.2,0.8-2.9,1.3c-0.7,0.6-1.1,1.2-1.3,1.9c-0.1,0.7-0.2,1.9-0.2,3.6v2.9c0,1.7,0.1,2.9,0.2,3.6c0.1,0.7,0.6,1.3,1.3,1.9
		c0.7,0.6,1.7,1,2.9,1.3c1.2,0.3,2.6,0.4,4.1,0.4c1.6,0,3-0.2,4.2-0.5c1.2-0.3,2.2-0.8,2.9-1.3c0.7-0.6,1.1-1.2,1.3-1.9
		c0.1-0.7,0.2-1.9,0.2-3.6v-2.9C77.5,20,77.4,18.8,77.2,18.1 M72.4,24c0,0.9,0,1.5-0.1,1.9c-0.1,0.4-0.2,0.7-0.5,1
		c-0.3,0.3-0.7,0.5-1.2,0.7c-0.5,0.2-1.1,0.2-1.7,0.2c-0.6,0-1.2-0.1-1.7-0.2c-0.5-0.2-0.9-0.4-1.2-0.7c-0.3-0.3-0.5-0.7-0.5-1
		c-0.1-0.4-0.1-1-0.1-1.9v-1.5c0-0.9,0-1.5,0.1-1.9c0.1-0.4,0.2-0.7,0.5-1c0.3-0.3,0.7-0.5,1.2-0.7c0.5-0.2,1.1-0.2,1.7-0.2
		c0.6,0,1.2,0.1,1.7,0.2c0.5,0.2,0.9,0.4,1.2,0.7c0.3,0.3,0.5,0.7,0.5,1c0.1,0.4,0.1,1,0.1,1.9V24z"/>
	<path class="st1" d="M143,18.1c-0.1-0.7-0.6-1.3-1.3-1.9c-0.7-0.6-1.7-1-2.9-1.3c-1.2-0.3-2.6-0.4-4.1-0.4c-1.6,0-3,0.2-4.2,0.5
		c-1.2,0.3-2.2,0.8-2.9,1.3c-0.7,0.6-1.1,1.2-1.3,1.9c-0.1,0.7-0.2,1.9-0.2,3.6v2.9c0,1.7,0.1,2.9,0.2,3.6c0.1,0.7,0.6,1.3,1.3,1.9
		c0.7,0.6,1.7,1,2.9,1.3c1.2,0.3,2.6,0.4,4.1,0.4c1.6,0,3-0.2,4.2-0.5c1.2-0.3,2.2-0.8,2.9-1.3c0.7-0.6,1.1-1.2,1.3-1.9
		c0.1-0.7,0.2-1.9,0.2-3.6v-2.9C143.2,20,143.1,18.8,143,18.1 M138.1,24c0,0.9,0,1.5-0.1,1.9c-0.1,0.4-0.2,0.7-0.5,1
		c-0.3,0.3-0.7,0.5-1.2,0.7c-0.5,0.2-1.1,0.2-1.7,0.2c-0.6,0-1.2-0.1-1.7-0.2c-0.5-0.2-0.9-0.4-1.2-0.7c-0.3-0.3-0.5-0.7-0.5-1
		c-0.1-0.4-0.1-1-0.1-1.9v-1.5c0-0.9,0-1.5,0.1-1.9c0.1-0.4,0.2-0.7,0.5-1c0.3-0.3,0.7-0.5,1.2-0.7c0.5-0.2,1.1-0.2,1.7-0.2
		c0.6,0,1.2,0.1,1.7,0.2c0.5,0.2,0.9,0.4,1.2,0.7s0.5,0.7,0.5,1c0.1,0.4,0.1,1,0.1,1.9V24z"/>
</g>
</svg>
